<svg xmlns="http://www.w3.org/2000/svg" viewBox="0 0 270.82 293.92">
  <g>
    <path d="M99.64,18.38h-12v7h-10c3.73,8.41,0,14.17-4,20-6.37,1.69-14,4.93-16,4,.58-6.58-6.52-9.67-5-17,3-11.07,9.54-8.38,20-12-5.85-3.07-8.58-9.49-13-14h-1c-5.9,20.14-30.11,29.53-55,24l-1-2c5.77-5.41,2.09-18.52,0-23l1-2c22.77,1,94.57-7.66,106,1-2.57,3.93-6.39,6.21-10,9Z" style="fill: #fff;stroke: #000;stroke-miterlimit: 10;fill-rule: evenodd"/>
    <path d="M170.64,2.38c21.09,1.11,82.34-5.08,98,4,0,10.24-2.81,12.61-7,18-24.66,3.55-35.66.37-51-14h-2c-6.78,12.55-24.47,24.56-40,22l-2-16,10-6-1-3c-7.2-.94-16.9,1.39-22-3v-1Z" style="fill: #fff;stroke: #000;stroke-miterlimit: 10;fill-rule: evenodd"/>
    <path d="M145.64,80.38l1,14h-1c-3.48-1.91-7.07-4.15-12-2h2c11.43,8.86,30.76,8.94,47,8l-3-4-8-5c-1.34,1.43-1.25,1.76-3,3a203.48,203.48,0,0,0-2-39h-1l-5,19h-2v-3c4.54-10.07,11.08-48.35-3-55v7l-3-7c-23.23-.06-37.33,9.72-57,14l-5-6,1-4h5c-.22,3.33-.94,2.3,1,5l4-2c6.39-25.09,34.81-17.84,54-12l17-2-3,4-9,3c11.47,20.72,6.55,56.82,16,76,29.74,12.09,35.93,41.53,29,75l-3,22c8.62,18.19,16.3,45.24,20,68l-2-1q-11-36-22-72c6.56-15.24,8.69-53.69,2-66h-11c-4,6.36-12.89,13.78-20,11l-5-11c-5.23,4-11.32,9.5-19,8l-4-10-17,4v-2l-2-18c-34.41-.62-35.31,15.27-55,27l3-4c10.33-22.31,38.36-34.62,71-35l-2-11c-15.75-2.17-28-18.71-34-31l1-3,4,6,7-2,8,5c.23,7.2-2.62,9-3,14,10.25,4.52,17,8.15,31,12v1l-1,1Z" style="fill: #fff;stroke: #000;stroke-miterlimit: 10;fill-rule: evenodd"/>
    <path d="M202.64,20.38l6,1c1.63,6,4.77,9.18,3,16l4-1c-6.14,13.39,17.75,60.28,20,82h4c-1.29,4.67.47,5.53,0,12,4.17.76,3.77-1.17,3,3l3,10c2-3.73-.43-1.63,4-3-.14,8.55,21.55,44.79,13,50l-1,2h-3c-23.21-36.83-40.19-70.13-56-117-3.09-9.15-15.47-36.55-9-46C196,25.6,199.89,23.88,202.64,20.38Z" style="fill: #fff;stroke: #000;stroke-miterlimit: 10;fill-rule: evenodd"/>
    <path d="M52.64,22.38c2,13.38-9.39,16.25,3,28l-1,2-14,5,6-2v-2h-4c-31.63,27.63-7.37,67.79-39,88l-2-5c6.82-24.8,21.5-55.19,31-82,3.82-10.79,1.9-18.21,6-25C45,27.72,48.8,26.05,52.64,22.38Z" style="fill: #fff;stroke: #000;stroke-miterlimit: 10;fill-rule: evenodd"/>
    <path d="M145.64,22.38c4.73-.06,6.66.13,9,2l-1,2c-12.22.12-18.11,4.41-26,8l5-7Z" style="fill: #fff;stroke: #000;stroke-miterlimit: 10;fill-rule: evenodd"/>
    <path d="M68.64,25.38v2c-2.86.72-1.59-.38-4,3l4,2-6,6,3,1,5-4,1-4c.81,4.95-.67,3,3,5l1-2c-1.68-4.75-1.74-5.44-3-9Z" style="fill: #fff;stroke: #000;stroke-miterlimit: 10;fill-rule: evenodd"/>
    <path d="M267.64,25.38c2.49,5.43,3.05,58.51,1,64-12.27-8.9-17.17-37.28-19-56l3-1c4.34-2.12,10.75-4.94,13-5l1,4h1Z" style="fill: #fff;stroke: #000;stroke-miterlimit: 10;fill-rule: evenodd"/>
    <path d="M266.64,130.38l-8-1c-14.6-30.39-30.16-61.71-37-101l2-1,16,10c0,10.69,10.32,19.36,8,31l4-1C247.61,89.27,266.23,102.71,266.64,130.38Z" style="fill: #fff;stroke: #000;stroke-miterlimit: 10;fill-rule: evenodd"/>
    <path d="M84.64,29.38c7,.21,8.38,1.79,13,4-1.48,13.09-9.13,21.22-13,32-7.34-.76-12.07-1.23-19,1,3.75-6,3.92-9.16,1-16C78,47.77,80.66,39.44,84.64,29.38Z" style="fill: #fff;stroke: #000;stroke-miterlimit: 10;fill-rule: evenodd"/>
    <path d="M114.64,29.38l10,1-1,3-20,3v-1l1-2Z" style="fill: #fff;stroke: #000;stroke-miterlimit: 10;fill-rule: evenodd"/>
    <path d="M144.64,29.38l10,1v1l-2,1c-4.45,4.15-11,5-18,4v-1l2-3Z" style="fill: #fff;stroke: #000;stroke-miterlimit: 10;fill-rule: evenodd"/>
    <path d="M62.64,32.38l-1,2,1,1,2-1Z" style="fill: #fff;stroke: #000;stroke-miterlimit: 10;fill-rule: evenodd"/>
    <path d="M266.64,32.38l1,7Z" style="fill: #fff;stroke: #000;stroke-miterlimit: 10;fill-rule: evenodd"/>
    <path d="M26.64,34.38c9.32,7-17.28,62.22-21,71h-2c1.33-12.72-2-24.84-2-30l6-6v-1l-2-1-3,3-1-3c2.42-4.74,1.17-31.45,11-30Z" style="fill: #fff;stroke: #000;stroke-miterlimit: 10;fill-rule: evenodd"/>
    <path d="M116.64,34.38h5l-1,5c-6.68,1.62-7,2.77-13,2l2-3Z" style="fill: #fff;stroke: #000;stroke-miterlimit: 10;fill-rule: evenodd"/>
    <path d="M131.64,38.38c4.78,5.36,7.59,15.63,9,24h3l-2-6c4.77,1.51,4.09,1.94,6,6l-3,2c-5.28,3.73-9.5,2.07-13,1l-1-2c2.9-6.08.52-15.06-3-23l1-1,2,1,7,25,2-2Z" style="fill: #fff;stroke: #000;stroke-miterlimit: 10;fill-rule: evenodd"/>
    <path d="M160.64,38.38c.22,8,.4,11.26-1,18l-2,1c-6.33-2.46-8.32-3.83-11-10,2.43-4.31,4.92-6.4,9-9Z" style="fill: #fff;stroke: #000;stroke-miterlimit: 10;fill-rule: evenodd"/>
    <path d="M62.64,39.38c1.33,4.91,1,4,6,5,1.45-3.33,2-2.7,4-5-5.49.67-5.24,2.28-7,1Z" style="fill: #fff;stroke: #000;stroke-miterlimit: 10;fill-rule: evenodd"/>
    <path d="M61.64,52.38c-.71.91-.16,2.49-4,1Z" style="fill: #fff;stroke: #000;stroke-miterlimit: 10;fill-rule: evenodd"/>
    <path d="M61.64,56.38l5,1h-2l-14,1Z" style="fill: #fff;stroke: #000;stroke-miterlimit: 10;fill-rule: evenodd"/>
    <path d="M47.64,59.38h2l-4,3Z" style="fill: #fff;stroke: #000;stroke-miterlimit: 10;fill-rule: evenodd"/>
    <path d="M57.64,60.38l9,1-21,4C48.76,62.53,53.44,62.37,57.64,60.38Z" style="fill: #fff;stroke: #000;stroke-miterlimit: 10;fill-rule: evenodd"/>
    <path d="M34.64,63.38c1,2.65-.76,4.84-3,7Z" style="fill: #fff;stroke: #000;stroke-miterlimit: 10;fill-rule: evenodd"/>
    <path d="M55.64,65.38l5,1v1l-13,3c1.6-2.7.34-1.38,3-3Z" style="fill: #fff;stroke: #000;stroke-miterlimit: 10;fill-rule: evenodd"/>
    <path d="M41.64,66.38c3.44,5.06.71,11,4,13,1.18-6.73,6.35-8.39,12-10l1,8c4.86-6.24,6.43-10,18-10l2,1-5,5c-3.08,5.87-8.86,6.65-15,7l1,10-5-6v-5h-4v1l3,3c-3,4.88-6.46,6.68-14,7l1-2,10-3-1-2-5-3h-2c-3.12,5.17-6,9.54-12,12A63.64,63.64,0,0,0,41.64,66.38Z" style="fill: #fff;stroke: #000;stroke-miterlimit: 10;fill-rule: evenodd"/>
    <path d="M155.64,66.38l3,2c-5.29,5.85-8.12,9.7-18,6v-4Z" style="fill: #fff;stroke: #000;stroke-miterlimit: 10;fill-rule: evenodd"/>
    <path d="M70.64,68.38c-4,3-6.41,4.5-9,9v1h4l8-10Z" style="fill: #fff;stroke: #000;stroke-miterlimit: 10;fill-rule: evenodd"/>
    <path d="M30.64,70.38l1,2Z" style="fill: #fff;stroke: #000;stroke-miterlimit: 10;fill-rule: evenodd"/>
    <path d="M29.64,72.38l1,2Z" style="fill: #fff;stroke: #000;stroke-miterlimit: 10;fill-rule: evenodd"/>
    <path d="M28.64,74.38c1.82,2.74-1.55,10.06-4,12Z" style="fill: #fff;stroke: #000;stroke-miterlimit: 10;fill-rule: evenodd"/>
    <path d="M71.64,77.38l4,2c-5,8.92-12.55,25.9-25,27l-10-10v-1c9.55-3.18,11-7.76,18-1l2-1c1.71-4.52,2-7.29,3-12Z" style="fill: #fff;stroke: #000;stroke-miterlimit: 10;fill-rule: evenodd"/>
    <path d="M24.64,89.38v0Z" style="fill: #fff;stroke: #000;stroke-miterlimit: 10;fill-rule: evenodd"/>
    <path d="M119.64,92.38l-11,4,1,2,16,1,1,18h1l17-4c.41,5.93,1.76,7.38,4,11,6.63-2.41,11.5-4.64,16-9l3,2,6,10c9.78-5.21,11.6-11.48,25-11v-1l-12-14C158.92,109.25,146.75,92.84,119.64,92.38Z" style="fill: #fff;stroke: #000;stroke-miterlimit: 10;fill-rule: evenodd"/>
    <path d="M23.64,94.38h2C23.89,95.36,25.42,95.29,23.64,94.38Z" style="fill: #fff;stroke: #000;stroke-miterlimit: 10;fill-rule: evenodd"/>
    <path d="M34.64,97.38c13.24,4.68,24.45,20.22,32,31l-3-2C53.6,121.41,42.08,105.72,34.64,97.38Z" style="fill: #fff;stroke: #000;stroke-miterlimit: 10;fill-rule: evenodd"/>
    <path d="M27.64,103.38l14,24,20,22C48.29,144.38,29.82,119.15,27.64,103.38Z" style="fill: #fff;stroke: #000;stroke-miterlimit: 10;fill-rule: evenodd"/>
    <path d="M109.64,117.38c3.21,2.09-.69,42.06-1,44h-3v-31c-11,7.59-23.48,16.06-39,19l-2-2C82.36,145.17,104,132.55,109.64,117.38Z" style="fill: #fff;stroke: #000;stroke-miterlimit: 10;fill-rule: evenodd"/>
    <path d="M27.64,124.38c4.69,1.61,6.71,4,9,8l-31,45c18.39,7.63,42.39,41.77,48,62,2.66,9.6-9.78,18.14-5,30v-2c17.16-30.77,22.83-88.22,56-102-10.67,20.06-28.35,37.21-39,59-9.72,19.9-9.86,43.37-19,65h-1l2-18-1,2-6,19h-6c13-27.25-27.31-89.65-30-115-4,.39-.63,2.15-4,0,5-10.86,9-23.5,16-39Z" style="fill: #fff;stroke: #000;stroke-miterlimit: 10;fill-rule: evenodd"/>
    <path d="M188.64,138.38s-8.62,31.42-7,45c3.09,26,20.41,79.52,38,88,6.71,3,17.9.57,24,2l-3-3,8-1v1l-2,3-14,3v1h7c-2.46,4.9-5.31,15-11,14l-13,1c-.75-5.66-.28-8.77,1-14l15-2v-1c-36.67-1.71-52.4-74.3-52-119l-21,20,16,29c12.42,24.53,17.74,54.05,28,82l-2,3-2-1c-5.53-26.4-29.83-102.09-45-114l-30-11c12.46,1,27.56,10.78,35,8Z" style="fill: #fff;stroke: #000;stroke-miterlimit: 10;fill-rule: evenodd"/>
    <path d="M264.64,193.38h3c-3,8.68-15.82,31.36-20,33v1l4-1c-5.51,7.67-11.76,21.4-11,30-7.07-.53-9.51.62-16,2v-2C216,234.43,255.18,204.07,264.64,193.38Z" style="fill: #fff;stroke: #000;stroke-miterlimit: 10;fill-rule: evenodd"/>
    <path d="M.64,211.38c10.7,8.92,30.59,61.34,24,81l-14,1v-1C14.53,276.59.9,241.38.64,211.38Z" style="fill: #fff;stroke: #000;stroke-miterlimit: 10;fill-rule: evenodd"/>
    <path d="M268.64,218.38c4,13.2-2.56,32.78,1,46l-18-10C256,238.46,260.38,229.38,268.64,218.38Z" style="fill: #fff;stroke: #000;stroke-miterlimit: 10;fill-rule: evenodd"/>
    <path d="M117.64,227.38l14,37,15,25-2,1-2-1-20-43-2,1c-3.33,14.22-15.49,36.08-26,44C103.92,268.46,121.61,256.37,117.64,227.38Z" style="fill: #fff;stroke: #000;stroke-miterlimit: 10;fill-rule: evenodd"/>
    <path d="M241.64,258.38l11,2v1l-23-1Z" style="fill: #fff;stroke: #000;stroke-miterlimit: 10;fill-rule: evenodd"/>
    <path d="M226.64,261.38h0Z" style="fill: #fff;stroke: #000;stroke-miterlimit: 10;fill-rule: evenodd"/>
    <path d="M224.64,262.38h0Z" style="fill: #fff;stroke: #000;stroke-miterlimit: 10;fill-rule: evenodd"/>
    <path d="M254.64,263.38a18.72,18.72,0,0,1,14,8Z" style="fill: #fff;stroke: #000;stroke-miterlimit: 10;fill-rule: evenodd"/>
    <path d="M252.64,267.38c7.8.66,14.2,4.3,17,10Z" style="fill: #fff;stroke: #000;stroke-miterlimit: 10;fill-rule: evenodd"/>
    <path d="M250.64,271.38l7,2v1C253.2,273.81,253,273.62,250.64,271.38Z" style="fill: #fff;stroke: #000;stroke-miterlimit: 10;fill-rule: evenodd"/>
    <path d="M246.64,275.38a20.19,20.19,0,0,1,13,11Z" style="fill: #fff;stroke: #000;stroke-miterlimit: 10;fill-rule: evenodd"/>
    <path d="M259.64,275.38c4.62,1.45,7,2.91,9,7Z" style="fill: #fff;stroke: #000;stroke-miterlimit: 10;fill-rule: evenodd"/>
    <path d="M268.64,293.38c-7.78-.12-21.21-.25-27-3,.13-4.37.41-5.66,2-8v-2l14,10,8-5,3,1Z" style="fill: #fff;stroke: #000;stroke-miterlimit: 10;fill-rule: evenodd"/>
    <path d="M227.64,282.38l-1,3C228.73,283.1,227.8,285,227.64,282.38Z" style="fill: #fff;stroke: #000;stroke-miterlimit: 10;fill-rule: evenodd"/>
  </g>
</svg>
