<?xml version="1.0" standalone="no"?>
<!DOCTYPE svg PUBLIC "-//W3C//DTD SVG 20010904//EN"
 "http://www.w3.org/TR/2001/REC-SVG-20010904/DTD/svg10.dtd">
<svg version="1.0" xmlns="http://www.w3.org/2000/svg"
 width="1024.000000pt" height="1024.000000pt" viewBox="0 0 1024.000000 1024.000000"
 preserveAspectRatio="xMidYMid meet">
<metadata>
Created by potrace 1.14, written by Peter Selinger 2001-2017
</metadata>
<g transform="translate(0.000000,1024.000000) scale(0.100000,-0.100000)"
fill="#000000" stroke="none">
<path d="M0 5120 l0 -5120 5120 0 5120 0 0 5120 0 5120 -5120 0 -5120 0 0
-5120z m3965 4500 c198 -22 365 -70 365 -105 0 -22 -121 -139 -218 -210 l-82
-60 0 -77 0 -78 -185 0 -185 0 0 -110 0 -110 -154 0 -154 0 19 -49 c26 -69 34
-165 19 -236 -13 -67 -83 -217 -133 -284 -31 -43 -38 -46 -157 -83 -211 -66
-294 -88 -326 -88 -31 0 -32 2 -43 61 -6 37 -27 91 -52 138 -87 157 -93 172
-97 251 -8 170 88 309 242 354 28 8 106 27 172 41 67 14 139 31 159 38 l37 13
-28 19 c-52 34 -136 119 -197 200 -113 150 -170 216 -184 213 -8 -2 -29 -39
-46 -84 -141 -349 -460 -584 -919 -676 -96 -19 -144 -23 -313 -22 -111 0 -229
6 -265 13 -169 31 -170 31 -184 60 -13 25 -12 30 15 71 45 67 63 140 62 255
-1 109 -25 236 -67 349 -22 62 -23 72 -11 96 l14 27 288 6 c158 4 403 14 543
22 534 30 842 46 1050 54 278 12 886 6 1015 -9z m4330 -10 c465 -15 749 -57
898 -132 l37 -18 0 -73 c-1 -152 -40 -259 -149 -403 l-61 -81 -106 -12 c-188
-21 -387 -32 -479 -26 -354 24 -597 130 -897 390 -71 62 -93 75 -121 75 -31 0
-37 -6 -82 -77 -65 -103 -252 -290 -373 -372 -120 -81 -292 -163 -412 -196
-70 -20 -129 -28 -222 -32 -191 -8 -170 -33 -202 234 -15 126 -30 235 -32 245
-4 12 33 39 148 108 84 51 154 93 155 94 2 2 -4 24 -13 49 l-16 47 -171 0
c-247 1 -356 13 -434 49 -56 27 -84 53 -71 66 11 11 486 35 693 35 127 0 374
5 550 11 271 9 776 22 1015 27 36 1 191 -3 345 -8z m-3150 -154 c125 -21 327
-68 473 -110 68 -20 140 -36 160 -35 20 0 138 13 262 28 124 16 227 27 229 25
2 -2 -16 -30 -40 -62 l-44 -59 -115 -38 c-63 -21 -125 -42 -138 -46 l-22 -9
24 -47 c108 -215 179 -535 231 -1033 77 -744 97 -874 172 -1105 47 -145 47
-145 185 -212 195 -95 353 -217 483 -374 333 -400 438 -980 314 -1727 -11 -70
-42 -284 -69 -477 l-48 -350 38 -85 c201 -450 399 -1099 519 -1707 57 -287 60
-303 54 -303 -2 0 -16 6 -31 14 -25 13 -47 81 -365 1123 l-338 1108 36 109
c102 316 151 732 142 1209 -6 346 -33 529 -97 675 l-19 42 -169 0 -169 0 -30
-42 c-52 -72 -154 -171 -230 -221 -114 -76 -250 -113 -325 -88 -30 10 -38 21
-73 99 -21 48 -56 124 -77 170 l-37 82 -83 -63 c-175 -134 -294 -188 -420
-188 -37 0 -72 2 -77 5 -5 3 -34 70 -66 148 -31 79 -60 146 -63 150 -4 3 -119
-20 -257 -53 -137 -32 -252 -59 -255 -59 -3 0 -15 93 -28 208 -12 114 -28 252
-34 306 l-11 99 -186 -6 c-269 -9 -442 -48 -634 -144 -140 -70 -199 -114 -437
-334 -203 -186 -300 -263 -419 -334 -8 -5 5 18 30 51 25 32 57 84 72 114 66
137 196 302 337 428 386 344 992 558 1675 589 80 3 145 9 145 12 0 22 -52 300
-59 317 -7 16 -22 23 -56 28 -201 31 -469 209 -666 444 -96 115 -232 317 -285
423 -36 75 -37 78 -24 123 l13 47 55 -83 c30 -46 58 -87 63 -92 4 -5 55 4 116
20 l109 28 121 -75 122 -74 1 -50 c0 -60 -17 -129 -60 -248 -48 -135 -53 -126
140 -214 91 -41 212 -94 270 -118 l105 -44 3 60 c2 32 5 59 8 59 3 0 107 27
231 60 l226 60 43 -27 c24 -16 44 -32 44 -37 0 -19 -168 -174 -212 -195 -26
-12 -78 -26 -115 -29 l-68 -7 110 -33 c61 -18 116 -35 123 -37 15 -5 16 -37 0
-53 -8 -8 -49 -12 -120 -12 l-108 0 0 -33 c0 -34 16 -267 24 -349 6 -60 -3
-61 -96 -14 -94 48 -162 61 -235 45 -52 -12 -55 -13 -28 -18 17 -4 57 -24 90
-45 236 -156 641 -229 1165 -211 113 4 207 8 209 10 2 2 -18 31 -43 64 -38 49
-70 75 -169 136 l-122 76 -29 -36 c-61 -76 -61 -75 -58 148 2 111 -1 292 -7
402 -11 188 -45 539 -57 578 -5 15 -34 25 -34 12 0 -12 -141 -542 -150 -562
-6 -15 -18 -23 -35 -23 -24 0 -25 3 -25 53 0 33 12 87 30 141 95 281 152 733
129 1029 -18 244 -70 398 -169 499 -80 83 -89 79 -92 -34 l-3 -92 -40 94 -41
95 -44 3 c-122 9 -413 -32 -625 -88 -104 -28 -183 -54 -655 -214 -262 -89
-429 -132 -445 -114 -6 7 -41 49 -78 94 l-66 80 16 62 15 62 78 0 77 0 -5 -53
c-3 -42 0 -57 16 -77 l20 -25 61 29 c57 28 61 32 76 81 30 105 94 215 169 290
105 107 260 176 446 199 66 8 335 -3 425 -18z m2166 -446 l76 -12 21 -62 c11
-33 35 -101 52 -150 30 -82 32 -98 28 -184 l-4 -94 28 6 c98 21 92 21 84 0
-29 -75 -32 -175 -10 -322 34 -231 104 -466 386 -1292 123 -361 186 -574 218
-740 12 -58 23 -115 26 -127 4 -21 10 -23 62 -23 l57 0 3 -182 c1 -100 4 -183
6 -185 2 -2 24 -5 49 -6 26 -2 49 -6 52 -9 3 -3 2 -23 -3 -44 -7 -32 0 -64 36
-184 24 -80 46 -147 48 -149 2 -2 11 12 19 32 13 31 20 37 44 37 16 0 36 2 43
5 10 4 17 -11 27 -57 17 -85 73 -233 203 -543 229 -543 292 -809 214 -902 -13
-16 -31 -43 -40 -60 -15 -30 -20 -33 -64 -33 l-47 0 -49 78 c-79 124 -305 503
-408 682 -432 753 -817 1585 -1113 2410 -49 135 -126 349 -173 475 -248 677
-312 908 -312 1134 0 167 46 263 178 373 37 31 87 77 112 102 26 27 51 44 60
42 8 -3 49 -10 91 -16z m-1643 -75 c28 -13 52 -27 52 -30 0 -3 -7 -19 -15 -35
-14 -27 -20 -30 -66 -30 -174 0 -375 -60 -634 -188 -55 -27 -101 -48 -103 -47
-2 2 30 49 71 106 l74 102 204 79 204 78 80 -6 c52 -4 98 -14 133 -29z m-3078
-60 c0 -75 -21 -173 -62 -295 -45 -133 -45 -211 1 -297 18 -34 58 -89 87 -122
30 -32 54 -63 54 -68 -1 -29 -45 -57 -145 -93 -60 -22 -113 -40 -117 -40 -4 0
-8 11 -8 25 0 24 -3 25 -61 25 -55 0 -64 -3 -104 -37 -116 -96 -272 -309 -350
-476 -43 -94 -118 -312 -113 -329 2 -5 19 37 37 94 32 98 35 101 44 73 20 -57
-23 -196 -87 -285 -40 -55 -50 -107 -96 -495 -61 -507 -121 -718 -269 -939
-56 -85 -185 -216 -268 -273 l-61 -43 -31 78 -32 78 35 115 c98 321 221 652
456 1229 335 820 453 1127 496 1285 13 50 35 169 49 265 31 215 40 259 75 336
l27 61 89 27 c104 33 242 102 299 150 48 41 55 34 55 -49z m6640 -137 c22
-174 31 -390 37 -873 6 -590 -9 -955 -40 -955 -17 0 -119 109 -164 175 -181
267 -316 734 -393 1354 -11 91 -20 170 -20 177 0 7 17 18 38 25 20 6 71 27
112 47 130 60 270 113 308 115 35 2 36 2 50 -55 9 -36 19 -58 28 -58 11 0 14
20 15 88 0 103 13 87 29 -40z m-1135 -79 l243 -151 7 -62 c11 -89 39 -172 117
-346 39 -85 81 -185 94 -222 30 -90 47 -206 39 -273 -4 -30 -6 -55 -4 -55 2 0
29 7 59 15 30 8 55 13 57 12 1 -2 -2 -43 -8 -93 -16 -143 4 -299 63 -484 17
-52 83 -219 148 -370 128 -301 177 -437 215 -605 24 -107 54 -369 44 -380 -5
-4 -240 23 -245 28 -4 4 -246 511 -311 652 -411 883 -660 1600 -793 2284 l-33
165 23 18 c12 10 27 18 32 18 6 0 120 -68 253 -151z m-4360 70 c22 -5 83 -30
137 -56 l96 -46 -5 -36 c-9 -67 -53 -222 -84 -299 -17 -42 -86 -185 -153 -317
-68 -132 -131 -261 -141 -287 l-18 -48 -56 8 c-31 4 -126 7 -211 7 -125 -1
-170 -5 -232 -22 -43 -11 -78 -20 -78 -18 0 2 17 38 37 81 52 108 57 203 19
317 -14 43 -26 81 -26 86 0 5 14 11 32 15 71 14 179 77 247 144 80 79 135 168
202 329 27 65 54 129 60 142 9 22 13 23 72 17 34 -4 80 -11 102 -17z m910 6
c77 -8 143 -15 147 -15 4 0 0 -20 -9 -45 -16 -48 -17 -49 -113 -64 l-55 -9 48
-1 c41 -1 48 -4 43 -18 -3 -10 -10 -45 -16 -79 l-12 -61 -117 -34 c-85 -24
-137 -33 -193 -34 -42 0 -79 3 -83 7 -4 4 6 26 23 50 22 32 54 57 126 97 52
30 94 56 92 58 -1 2 -85 -9 -184 -24 -100 -14 -185 -24 -188 -20 -4 4 1 24 10
45 17 38 24 42 169 100 84 34 157 61 162 61 6 0 73 -6 150 -14z m925 0 c74 -8
138 -15 143 -15 11 0 9 -40 -2 -40 -6 0 -40 -21 -78 -47 -122 -84 -267 -119
-435 -107 -103 8 -108 16 -58 89 25 36 41 48 102 71 40 15 93 35 118 45 55 22
46 22 210 4z m-3739 -228 c7 -25 9 -79 6 -137 -16 -295 -211 -857 -586 -1693
-61 -136 -111 -252 -111 -257 0 -6 -15 -10 -32 -10 l-33 0 3 157 c3 162 -7
283 -49 596 l-23 167 97 98 c53 53 97 102 97 108 0 6 -15 17 -32 26 l-33 16
-46 -45 -47 -45 -16 50 c-13 37 -14 56 -6 76 5 15 24 131 40 259 45 342 77
468 140 556 37 51 71 68 157 81 37 6 147 28 243 49 l175 39 22 -24 c12 -13 28
-43 34 -67z m4076 -249 c-2 -117 -10 -241 -17 -276 -11 -57 -16 -65 -46 -79
-32 -16 -35 -15 -111 18 -96 41 -185 124 -228 213 -28 58 -28 58 -10 91 28 53
114 144 185 197 l65 48 84 0 83 0 -5 -212z m-793 62 c68 -131 123 -304 166
-522 l11 -58 46 0 c32 0 44 4 41 13 -26 70 -49 149 -44 154 8 8 92 -25 106
-41 6 -8 24 -40 39 -72 l29 -59 -81 -53 c-130 -85 -202 -98 -337 -61 -68 18
-79 24 -92 52 -13 29 -13 36 1 67 12 26 16 69 16 170 0 117 -4 148 -28 235
-15 55 -43 138 -62 185 -30 74 -32 87 -20 99 13 13 19 13 47 -1 l33 -16 104
-373 c57 -206 107 -377 110 -382 4 -4 19 5 34 21 l27 28 -115 360 c-63 197
-117 368 -121 379 -10 39 45 -38 90 -125z m-2264 -295 c0 -21 -37 -37 -71 -30
-41 9 -36 20 14 32 59 15 57 15 57 -2z m85 -122 c25 -3 44 -8 42 -10 -4 -3
-392 -34 -412 -32 -5 1 55 14 135 29 80 15 155 26 168 24 12 -3 42 -7 67 -11z
m-463 -86 c-6 -7 -32 -28 -58 -47 l-48 -34 33 47 c24 35 38 47 58 47 20 0 23
-3 15 -13z m421 -39 c59 -6 106 -12 104 -14 -4 -4 -588 -114 -606 -114 -65 1
285 136 359 139 19 0 83 -4 143 -11z m-863 -158 c-6 -21 -28 -57 -50 -81 l-40
-44 36 85 c20 47 39 94 42 104 5 18 6 18 14 -3 5 -14 4 -39 -2 -61z m710 10
c25 -6 55 -12 68 -15 26 -6 29 -31 5 -39 -25 -7 -370 -86 -377 -86 -14 0 26
60 47 71 40 22 182 78 197 78 8 0 35 -4 60 -9z m-455 -115 c8 -27 17 -86 20
-130 8 -94 19 -137 43 -159 17 -14 19 -13 29 27 19 69 71 138 133 175 60 36
148 71 196 79 l31 5 13 -116 c7 -64 16 -116 19 -116 3 0 16 15 28 33 46 66
123 151 169 184 94 66 311 106 383 69 l33 -18 -83 -87 c-46 -48 -101 -109
-123 -135 -67 -82 -167 -124 -338 -141 -79 -8 -74 8 -54 -180 7 -66 12 -121
11 -123 -2 -2 -37 37 -79 87 l-76 89 0 76 0 76 -60 0 c-75 0 -77 -13 -16 -77
52 -54 51 -57 -20 -133 -60 -64 -153 -106 -268 -120 -49 -6 -90 -9 -92 -7 -2
1 5 16 15 33 16 26 34 34 168 73 l151 44 -13 31 c-16 39 -155 126 -201 126
-27 0 -36 -8 -79 -77 -67 -105 -171 -213 -244 -252 -32 -17 -61 -31 -65 -31
-3 0 19 38 50 85 109 167 202 389 255 606 20 83 23 90 36 73 8 -10 20 -41 28
-69z m946 -275 l60 -31 -37 -67 c-195 -354 -257 -446 -384 -573 -77 -77 -113
-104 -178 -137 -45 -22 -103 -44 -128 -48 l-46 -7 -154 154 c-85 85 -154 161
-154 169 0 9 16 22 38 29 20 8 91 39 156 69 165 76 199 75 313 -10 51 -37 54
-38 82 -23 39 19 65 96 111 328 l12 58 116 59 c64 32 121 59 125 59 4 1 35
-13 68 -29z m-1499 -502 c-9 -9 -15 -9 -24 0 -9 9 -7 12 12 12 19 0 21 -3 12
-12z m448 -155 c213 -118 459 -367 724 -731 53 -73 96 -135 96 -138 0 -3 -19
8 -42 24 -24 16 -68 43 -98 60 -128 72 -308 243 -535 508 -230 269 -285 334
-285 339 0 8 68 -22 140 -62z m-150 -486 l212 -363 303 -334 c167 -184 302
-336 300 -338 -10 -10 -155 79 -248 153 -335 269 -686 806 -771 1183 -8 34
-13 62 -11 62 1 0 98 -163 215 -363z m2325 -84 c35 -93 17 -684 -39 -1218
l-11 -110 -45 0 -45 0 -3 473 c-1 259 -4 472 -7 472 -2 0 -89 -56 -192 -123
-347 -228 -560 -333 -828 -410 -145 -42 -171 -44 -200 -17 -14 13 -25 26 -25
30 0 3 44 15 98 25 191 35 398 113 607 226 286 155 528 383 633 596 20 40 39
73 43 73 4 0 10 -8 14 -17z m-2463 -225 c63 -33 139 -109 174 -174 l22 -39
-473 -685 c-261 -377 -474 -688 -474 -692 -1 -4 34 -25 77 -47 482 -251 1156
-1140 1377 -1816 47 -146 36 -219 -76 -470 -33 -75 -67 -164 -76 -198 -20 -77
-20 -208 0 -262 13 -35 16 -36 16 -14 1 14 32 91 70 171 38 80 99 221 136 314
84 214 97 246 90 214 -121 -552 -191 -846 -240 -1010 -48 -160 -117 -340 -131
-340 -19 0 -18 18 11 270 14 118 25 226 25 240 -1 23 -1 24 -12 6 -6 -10 -52
-150 -102 -310 l-92 -291 -93 -3 c-86 -3 -93 -1 -87 15 4 10 19 56 33 103 38
124 43 350 14 551 -55 381 -180 752 -553 1649 -282 675 -378 943 -412 1140
-13 82 -27 95 -70 67 -20 -13 -25 -13 -44 2 l-21 16 45 105 c25 58 102 249
171 425 69 176 159 397 199 491 l73 172 168 215 c92 119 174 216 182 217 7 0
40 -14 73 -32z m4831 -580 c-144 -580 -198 -1004 -159 -1268 104 -708 416
-1636 724 -2158 173 -291 329 -451 492 -503 67 -22 61 -22 533 -32 l138 -3
-38 38 c-20 21 -35 40 -32 42 2 3 45 10 94 16 50 6 102 13 118 15 37 6 35 -18
-7 -75 l-33 -45 -209 -46 c-165 -36 -210 -49 -212 -62 -3 -15 9 -17 102 -17
l105 0 -41 -92 c-93 -217 -168 -321 -239 -332 -65 -11 -452 -36 -458 -30 -13
13 -4 270 13 343 9 41 18 76 20 78 3 3 428 63 447 63 5 0 9 7 9 15 0 9 -14 16
-37 20 -21 3 -79 14 -129 26 -611 137 -1111 1047 -1334 2424 -52 323 -79 611
-98 1042 l-7 162 -285 -270 c-157 -149 -300 -285 -319 -304 l-34 -33 259 -469
c142 -257 285 -526 317 -598 141 -315 246 -623 462 -1355 80 -272 184 -609
231 -748 l85 -253 -31 -44 c-31 -45 -31 -45 -60 -30 -20 10 -32 27 -39 53 -6
20 -26 102 -46 182 -62 246 -143 532 -240 845 -331 1062 -703 1954 -960 2300
-105 140 -85 129 -551 301 -231 85 -435 161 -454 169 l-35 15 45 -6 c85 -11
265 -62 455 -129 320 -113 458 -143 536 -116 26 10 134 126 484 526 248 283
453 514 456 514 3 1 -14 -77 -38 -171z m-2579 -715 c-95 -173 -247 -396 -494
-728 -347 -466 -486 -673 -617 -919 -36 -67 -63 -114 -60 -106 2 8 32 94 67
190 296 833 575 1282 947 1526 66 44 176 103 191 104 2 0 -13 -30 -34 -67z
m5056 -803 c0 -5 -29 -73 -65 -151 -151 -328 -416 -755 -519 -836 -14 -12 -26
-28 -26 -36 0 -13 6 -14 53 -1 28 7 55 14 59 14 4 0 -17 -37 -46 -82 -157
-242 -286 -595 -286 -782 l0 -56 -97 0 c-88 0 -169 -13 -364 -56 -25 -6 -27
-3 -31 32 -3 22 -13 68 -23 104 -22 82 -16 221 15 330 41 145 152 352 281 522
136 180 226 277 587 636 l375 372 43 0 c24 0 44 -4 44 -10z m-8068 -735 c74
-112 218 -404 293 -595 219 -550 354 -1159 330 -1485 -7 -85 -28 -211 -37
-221 -7 -6 -420 -35 -426 -30 -2 3 1 56 8 118 22 205 -4 408 -140 1093 -85
431 -121 632 -144 820 -18 141 -36 368 -36 439 l1 51 46 -50 c26 -27 73 -90
105 -140z m8116 -82 c6 -27 14 -66 17 -88 12 -74 6 -368 -11 -560 -22 -233
-24 -556 -6 -638 8 -32 12 -61 9 -63 -4 -5 -522 279 -539 295 -7 6 44 189 95
336 57 164 140 344 225 485 56 94 185 280 194 280 3 0 11 -21 16 -47z m-4442
-808 l208 -550 223 -371 c122 -205 225 -379 229 -387 4 -10 -4 -20 -22 -30
-25 -13 -32 -13 -59 0 -29 14 -59 73 -340 679 l-308 664 -30 -19 c-25 -16 -34
-34 -54 -102 -82 -285 -275 -665 -480 -948 -81 -111 -277 -320 -289 -308 -14
13 146 316 316 597 242 402 319 569 372 814 19 85 22 133 23 308 0 113 1 206
2 205 0 -1 95 -249 209 -552z m-1940 364 c-30 -85 -55 -149 -55 -143 -1 6 19
69 43 140 54 158 57 166 62 161 3 -2 -20 -73 -50 -158z m5717 -764 c118 -22
157 -33 157 -44 0 -12 -27 -13 -187 -7 -336 11 -493 19 -489 23 6 7 330 62
346 59 8 -2 86 -16 173 -31z m339 -146 c109 -32 225 -108 285 -187 27 -37 27
-37 3 -21 -14 8 -107 62 -207 118 -101 57 -183 105 -183 107 0 9 36 3 102 -17z
m-32 -126 c132 -34 274 -125 335 -216 19 -28 33 -52 31 -54 -3 -3 -496 283
-506 294 -7 7 72 -6 140 -24z m-69 -136 c93 -29 107 -53 24 -43 -59 7 -92 21
-135 56 l-25 21 32 -6 c17 -3 64 -16 104 -28z m-78 -174 c37 -25 85 -66 107
-91 47 -53 102 -133 96 -140 -5 -4 -376 306 -376 314 0 11 114 -43 173 -83z
m372 19 c39 -27 105 -104 105 -123 0 -9 -142 96 -225 166 l-30 25 55 -20 c30
-12 73 -33 95 -48z m-428 -241 c205 -147 208 -149 233 -133 14 9 69 43 122 75
l97 60 46 -13 45 -13 0 -110 0 -110 -202 7 c-112 4 -259 14 -328 22 -118 14
-259 45 -289 63 -18 12 0 146 28 204 12 24 21 55 21 70 0 15 4 27 10 27 5 0
103 -67 217 -149z"/>
</g>
</svg>
